PathFileType	4	(X/Y/Z)	DARI_DATA/Captury_Subj8_bilateral_squat02.trc
DataRate	CameraRate	NumFrames	NumMarkers	Units	OrigDataRate	OrigDataStartFrame	OrigNumFrames
60	60	4	47	mm	59.99879837036133	120	239
Frame#	Time		LeftUpLeg_		RightUpLeg_		LeftLeg_		RightLeg_		LeftFoot_		RightFoot_		LeftToeBase_		RightToeBase_		Knee_Lateral_r		Knee_Lateral_l		Ankle_Lateral_r		Ankle_Lateral_l		LeftArm_		LeftForeArm_		LeftHand_		LeftHandEE		RightArm_		RightForeArm_		RightHand_		RightHandEE		Spine_		Spine1_		Spine2_		Spine3_		Spine4_		Spine5_		Spine_x		Spine_y		Spine_z		RASI		LASI		RIPS		LIPS		RTHI		LTHI		RTIB		LTIB		RTOE		LTOE		RHEE		LHEE		RHipAngles		LHipAngles		RKneeAngles		LKneeAngles		RAnkleAngles		LAnkleAngles
			X1	Y1	Z1	X2	Y2	Z2	X3	Y3	Z3	X4	Y4	Z4	X5	Y5	Z5	X6	Y6	Z6	X7	Y7	Z7	X8	Y8	Z8	X9	Y9	Z9	X10	Y10	Z10	X11	Y11	Z11	X12	Y12	Z12	X13	Y13	Z13	X14	Y14	Z14	X15	Y15	Z15	X16	Y16	Z16	X17	Y17	Z17	X18	Y18	Z18	X19	Y19	Z19	X20	Y20	Z20	X21	Y21	Z21	X22	Y22	Z22	X23	Y23	Z23	X24	Y24	Z24	X25	Y25	Z25	X26	Y26	Z26	X27	Y27	Z27	X28	Y28	Z28	X29	Y29	Z29	X30	Y30	Z30	X31	Y31	Z31	X32	Y32	Z32	X33	Y33	Z33	X34	Y34	Z34	X35	Y35	Z35	X36	Y36	Z36	X37	Y37	Z37	X38	Y38	Z38	X39	Y39	Z39	X40	Y40	Z40	X41	Y41	Z41	X42	Y42	Z42	X43	Y43	Z43	X44	Y44	Z44	X45	Y45	Z45	X46	Y46	Z46	X47	Y47	Z47

120	1.98333	-77.24879	504.83557	232.45343	99.55985	496.02600	225.29367	-166.51215	393.72821	-168.94910	171.60477	397.87646	-182.88892	-122.72179	88.24274	76.56653	138.07990	101.78833	75.42261	-165.83122	33.09132	-40.02901	174.34135	28.29393	-33.10530	219.94519	394.85172	-176.22948	-214.51404	390.85870	-160.12418	183.83270	103.37095	101.76793	-167.08643	86.60645	105.18470	-147.55106	902.84607	0.09920	-161.04271	900.82440	-280.20889	-158.44339	913.47485	-520.98932	-153.99658	912.53662	-608.87103	141.65520	906.35675	-13.35380	164.60736	893.92444	-292.77710	139.71826	908.39941	-532.17847	138.92862	913.74609	-620.01147	16.78911	597.94739	248.00598	17.33875	681.58820	205.42191	15.83356	744.57446	188.13414	10.24632	829.36218	170.70236	-1.23269	922.28137	79.21718	-27904771620864.00000	0.00000	-27904805175296.00000	66.53270	595.46887	245.99164	19.25948	647.73151	247.75537	18.81341	598.09766	297.81064	159.67932	560.28076	122.58212	-138.78223	575.15179	134.66818	56.31635	566.18427	276.42767	-23.27341	570.14990	279.65063	201.83765	442.69586	44.15891	-187.07745	445.67712	57.66043	196.84454	253.54149	-72.86454	-178.35074	196.98174	-31.22137	191.70360	15.86184	-106.74191	-189.26010	15.32333	-110.83678	135.79404	46.61620	139.21811	-118.44002	23.75200	130.80363	-76.92767	9.69803	3.02004	-74.76354	6.13896	8.01009	-112.36470	-0.05285	0.95714	-108.45426	-0.24519	0.59796	-24.20379	5.63914	12.82217	-31.07612	5.61996	12.45395
121	2.00000	-77.59067	503.77518	231.97983	99.25134	495.20236	225.37979	-166.41870	393.41504	-169.72528	171.19946	398.32861	-183.12445	-122.97187	88.15274	76.12877	138.01587	101.97473	74.92612	-165.98044	32.48038	-40.25628	174.32062	28.29001	-33.45815	219.55542	395.43527	-176.51958	-214.43246	390.55136	-160.96335	183.77029	103.64466	101.26321	-167.36656	86.63232	104.70671	-147.43800	902.35596	0.26955	-161.55545	900.39325	-280.00812	-158.53329	913.53271	-520.75739	-153.11145	912.70618	-608.58545	141.71385	906.32971	-13.25543	165.33124	894.49078	-292.64908	140.28690	909.29968	-532.01385	138.78485	914.53003	-619.84460	16.27516	596.99561	247.91646	16.89188	680.71857	205.47130	15.44021	743.75134	188.30757	9.98718	828.59766	171.06815	-1.12562	921.79712	79.80751	-27904771620864.00000	0.00000	-27904805175296.00000	66.02814	594.58374	246.05960	18.68131	646.78308	247.71780	18.13945	597.10425	297.72748	159.61610	559.62665	122.91862	-138.90181	574.09802	134.05981	55.75243	565.25879	276.43677	-23.85235	569.11780	279.40775	201.51584	442.65454	44.00906	-187.23448	444.97375	56.95049	196.60628	253.92752	-73.22541	-178.46085	196.80933	-31.81432	191.66501	15.84397	-107.09659	-189.33093	14.49939	-111.03618	135.78009	46.92933	138.83272	-118.77812	23.91244	130.66910	-76.99780	9.48435	2.86524	-74.83177	6.27942	7.94771	-112.47442	-0.16659	0.95376	-108.60775	-0.23867	0.63696	-24.03644	5.63860	12.82323	-30.87465	5.62163	12.49567
122	2.01667	-77.85851	503.06488	232.22012	99.00658	494.62210	226.08710	-166.26471	393.43387	-169.77759	171.27341	399.44202	-182.75885	-123.06374	88.09619	76.02620	137.93091	102.39679	74.47519	-165.94356	32.01810	-40.21144	174.33951	28.45587	-33.69955	219.63261	396.61572	-176.14882	-214.28647	390.54327	-161.06851	183.66588	104.10944	100.84331	-167.48959	86.64194	104.55912	-147.47462	903.03894	0.39982	-162.60544	900.90503	-279.82373	-158.25821	914.77582	-520.51166	-152.24585	913.83252	-608.30011	141.61517	906.59100	-13.39381	165.99435	895.89539	-292.76813	140.98676	911.68591	-532.07397	139.39810	915.88605	-619.95850	15.88312	596.45667	247.88219	16.55712	680.10449	205.28479	15.14339	743.14380	188.13297	9.78256	828.03564	171.07840	-1.10955	921.58264	80.14383	-27904771620864.00000	0.00000	-27904805175296.00000	65.64260	594.08136	246.15671	18.24389	646.24463	247.42339	17.62845	596.83295	297.69620	159.55630	558.55487	123.42739	-139.00055	572.80676	133.78024	55.32144	564.90942	276.66550	-24.29372	568.70990	279.42627	201.43062	442.96039	44.55193	-187.31610	444.56552	56.97314	196.61896	254.76047	-73.21503	-178.44638	196.78821	-31.93582	191.71619	15.92779	-107.31647	-189.20457	13.89661	-110.98495	135.69516	47.51473	138.52216	-118.93571	24.04745	130.79639	-77.50717	9.36227	2.76212	-75.25597	6.38337	7.94921	-112.55194	-0.25651	0.94251	-108.69258	-0.21715	0.66257	-23.74870	5.63905	12.88520	-30.66435	5.62383	12.53694
123	2.03333	-78.73154	504.54471	232.38445	98.12987	495.83249	226.52850	-166.00618	393.78152	-169.55019	171.12115	400.20645	-182.08469	-123.08138	88.01685	75.77081	137.77185	102.43701	74.30975	-165.71695	31.66704	-40.42526	174.33194	28.06672	-33.51899	219.46667	397.36624	-175.38126	-214.04774	390.87219	-160.95734	183.48923	104.24936	100.70172	-167.55826	86.56808	104.22441	-147.44472	904.84131	0.82673	-163.28461	902.33368	-279.35458	-157.79205	916.64343	-519.99347	-151.94574	916.76471	-607.79810	141.59592	908.33777	-13.40436	166.66353	898.55084	-292.75107	141.85512	914.86786	-532.04236	140.76630	918.58417	-619.95630	15.12530	597.81244	248.09564	15.99743	681.44159	205.49380	14.72108	744.47839	188.37186	9.55697	829.38580	171.39731	-1.04099	923.06128	80.57927	-27904771620864.00000	0.00000	-27904805175296.00000	64.88374	595.36133	246.44812	17.56095	647.59637	247.59073	16.79559	598.23596	297.91187	158.93051	559.57227	123.89711	-139.62012	574.27899	133.78220	54.47282	566.23529	276.97031	-25.14068	570.15710	279.60635	200.87143	443.94275	45.23793	-187.68637	445.49039	57.01033	196.47960	255.25084	-72.90675	-178.33228	196.88167	-32.08461	191.73532	15.32577	-107.09306	-188.82826	13.47731	-111.23031	135.60844	47.84208	138.60413	-119.02187	24.08803	130.68604	-77.50682	9.39582	2.70850	-75.14719	6.28465	8.05677	-112.33251	-0.18468	0.91959	-108.43538	-0.25518	0.68380	-23.35484	5.64032	12.99487	-30.44383	5.62625	12.57386
